<svg width="36" height="30" viewBox="0 0 36 30" fill="none" xmlns="http://www.w3.org/2000/svg">
<path d="M14.5441 0.188873H4.17611C2.27532 0.188873 0.737403 1.85512 0.737403 3.89165L0.720123 26.1083C0.720123 28.1448 2.27532 29.8111 4.17611 29.8111H31.824C33.7248 29.8111 35.28 28.1448 35.28 26.1083V7.59443C35.28 5.5579 33.7248 3.89165 31.824 3.89165H18.0001L14.5441 0.188873Z" fill="#F8F8FB"/>
<path d="M18.4255 9.0697C14.5585 9.0697 11.4201 12.4322 11.4201 16.5753C11.4201 20.7185 14.5585 24.081 18.4255 24.081C22.2925 24.081 25.4309 20.7185 25.4309 16.5753C25.4309 12.4322 22.2925 9.0697 18.4255 9.0697ZM21.9282 16.7409C21.9282 17.064 21.6663 17.3259 21.3431 17.3259H19.7111C19.388 17.3259 19.126 17.5878 19.126 17.9109V19.7431C19.126 20.0662 18.8641 20.3282 18.541 20.3282H18.31C17.9869 20.3282 17.725 20.0662 17.725 19.7431V17.9109C17.725 17.5878 17.463 17.3259 17.1399 17.3259H15.5078C15.1847 17.3259 14.9228 17.064 14.9228 16.7409V16.4098C14.9228 16.0867 15.1847 15.8248 15.5078 15.8248H17.1399C17.463 15.8248 17.725 15.5628 17.725 15.2397V13.4076C17.725 13.0845 17.9869 12.8225 18.31 12.8225H18.541C18.8641 12.8225 19.126 13.0845 19.126 13.4076V15.2397C19.126 15.5628 19.388 15.8248 19.7111 15.8248H21.3431C21.6663 15.8248 21.9282 16.0867 21.9282 16.4098V16.7409Z" fill="#5654C9"/>
</svg>
