<svg width="24" height="24" viewBox="0 0 24 24" fill="none" xmlns="http://www.w3.org/2000/svg">
<path d="M21 6C21 6.55 20.55 7 20 7H19V8C19 8.55 18.55 9 18 9C17.45 9 17 8.55 17 8V7H16C15.45 7 15 6.55 15 6C15 5.45 15.45 5 16 5H17V4C17 3.45 17.45 3 18 3C18.55 3 19 3.45 19 4V5H20C20.55 5 21 5.45 21 6ZM19 19.48C19 20.2 18.27 20.68 17.61 20.4L12 18L6.39003 20.4C6.23814 20.466 6.07217 20.493 5.9072 20.4785C5.74222 20.464 5.58348 20.4086 5.44538 20.3172C5.30729 20.2258 5.19421 20.1013 5.11644 19.9551C5.03866 19.8089 4.99865 19.6456 5.00003 19.48V5C5.00003 3.9 5.90003 3 7.00003 3H14C13.3923 3.81162 13.0455 4.78879 13.0057 5.80196C12.966 6.81514 13.235 7.81648 13.7773 8.67325C14.3196 9.53003 15.1094 10.2018 16.0421 10.5994C16.9748 10.9971 18.0064 11.1019 19 10.9V19.48Z" fill="#9292D3"/>
</svg>
