<svg width="22" height="16" viewBox="0 0 22 16" fill="none" xmlns="http://www.w3.org/2000/svg">
<path d="M21.7 3.24979H19.8066C19.6409 3.24979 19.5066 3.11547 19.5066 2.94979V1.75372V1.05635C19.5066 0.890662 19.3723 0.756348 19.2066 0.756348H19.0079H18.3105C18.1448 0.756348 18.0105 0.890662 18.0105 1.05635V2.94979C18.0105 3.11547 17.8762 3.24979 17.7105 3.24979H15.8171C15.6514 3.24979 15.5171 3.3841 15.5171 3.54979V4.44585C15.5171 4.61154 15.6514 4.74585 15.8171 4.74585H17.7105C17.8762 4.74585 18.0105 4.88017 18.0105 5.04585V6.93929C18.0105 7.10498 18.1448 7.23929 18.3105 7.23929H18.5092H19.2066C19.3723 7.23929 19.5066 7.10498 19.5066 6.93929V5.04585C19.5066 4.88017 19.6409 4.74585 19.8066 4.74585H21.7C21.8657 4.74585 22 4.61154 22 4.44585V3.54979C22 3.3841 21.8657 3.24979 21.7 3.24979Z" fill="#9292D3"/>
<path fill-rule="evenodd" clip-rule="evenodd" d="M13.8494 1.96772H9.83862L7.8709 0H1.96772C0.875637 0 0 0.875637 0 1.96772V13.7741C0 14.2959 0.207313 14.7964 0.576333 15.1655C0.945353 15.5345 1.44585 15.7418 1.96772 15.7418H10.911H17.5976C17.5976 15.7418 18.4834 15.8398 19.0734 15.2499C19.6633 14.6599 19.6772 13.8033 19.6772 13.8033V10.0251C18.3098 10.0338 16.9826 9.74572 15.9092 9.12601C13.3608 7.65467 12.9923 4.74632 13.8494 1.96772Z" fill="#9292D3"/>
</svg>
