<svg xmlns="http://www.w3.org/2000/svg" width="24" height="24" fill="none"><path fill="#1D1C49" d="M20.755 7.89h-1.55c-.135 0-.245-.12-.245-.268V5.94c0-.147-.11-.267-.245-.267h-.734c-.135 0-.245.12-.245.267v1.683c0 .148-.11.267-.246.267h-1.549c-.135 0-.245.12-.245.267v.796c0 .148.11.267.245.267h1.55c.135 0 .245.12.245.267v1.683c0 .147.11.267.245.267h.733c.136 0 .246-.12.246-.267V9.486c0-.147.11-.267.245-.267h1.55c.135 0 .245-.12.245-.267v-.796c0-.148-.11-.267-.245-.267Z"/><path fill="#1D1C49" fill-rule="evenodd" d="M14.331 6.75H11.05L9.44 5H4.61C3.716 5 3 5.778 3 6.75v10.495c0 .464.17.91.472 1.237.301.328.711.513 1.138.513h12.788s.725.087 1.207-.438c.483-.524.494-1.286.494-1.286v-3.359c-1.118.008-2.204-.248-3.082-.799-2.085-1.308-2.387-3.893-1.686-6.364Z" clip-rule="evenodd"/></svg>