<svg width="24" height="24" viewBox="0 0 24 24" fill="none" xmlns="http://www.w3.org/2000/svg">
<path d="M20 6.25885C20 6.80885 19.55 7.25885 19 7.25885H18V8.25885C18 8.80885 17.55 9.25885 17 9.25885C16.45 9.25885 16 8.80885 16 8.25885V7.25885H15C14.45 7.25885 14 6.80885 14 6.25885C14 5.70885 14.45 5.25885 15 5.25885H16V4.25885C16 3.70885 16.45 3.25885 17 3.25885C17.55 3.25885 18 3.70885 18 4.25885V5.25885H19C19.55 5.25885 20 5.70885 20 6.25885ZM18 19.7388C18 20.4588 17.27 20.9388 16.61 20.6588L11 18.2589L5.39003 20.6588C5.23814 20.7248 5.07217 20.7519 4.9072 20.7374C4.74222 20.7229 4.58348 20.6674 4.44538 20.576C4.30729 20.4846 4.19421 20.3601 4.11644 20.2139C4.03866 20.0677 3.99865 19.9044 4.00003 19.7388V5.25885C4.00003 4.15885 4.90003 3.25885 6.00003 3.25885H13C12.3923 4.07047 12.0455 5.04764 12.0057 6.06081C11.966 7.07399 12.235 8.07533 12.7773 8.9321C13.3196 9.78888 14.1094 10.4606 15.0421 10.8582C15.9748 11.2559 17.0064 11.3607 18 11.1588V19.7388Z" fill="#7170DE"/>
</svg>
