<svg width="24" height="24" viewBox="0 0 24 24" fill="none" xmlns="http://www.w3.org/2000/svg">
<path d="M5.69696 20.7013C5.36703 20.8427 5 20.6007 5 20.2417V5C5 4.45 5.196 3.97933 5.588 3.588C5.98 3.19667 6.45067 3.00067 7 3H12.5C12.7761 3 13 3.22386 13 3.5V4.5C13 4.77614 12.7761 5 12.5 5H7.5C7.22386 5 7 5.22386 7 5.5V17.1907C7 17.55 7.36751 17.792 7.69751 17.6501L11.8025 15.8849C11.9286 15.8307 12.0714 15.8307 12.1975 15.8849L16.3025 17.6501C16.6325 17.792 17 17.55 17 17.1907V11.5C17 11.2239 17.2239 11 17.5 11H18.5C18.7761 11 19 11.2239 19 11.5V20.2417C19 20.6007 18.633 20.8427 18.303 20.7013L12.197 18.0844C12.0712 18.0305 11.9288 18.0305 11.803 18.0844L5.69696 20.7013ZM17.5 9C17.2239 9 17 8.77614 17 8.5V7.5C17 7.22386 16.7761 7 16.5 7H15.5C15.2239 7 15 6.77614 15 6.5V5.5C15 5.22386 15.2239 5 15.5 5H16.5C16.7761 5 17 4.77614 17 4.5V3.5C17 3.22386 17.2239 3 17.5 3H18.5C18.7761 3 19 3.22386 19 3.5V4.5C19 4.77614 19.2239 5 19.5 5H20.5C20.7761 5 21 5.22386 21 5.5V6.5C21 6.77614 20.7761 7 20.5 7H19.5C19.2239 7 19 7.22386 19 7.5V8.5C19 8.77614 18.7761 9 18.5 9H17.5Z" fill="#1D1C49"/>
</svg>
