<svg xmlns="http://www.w3.org/2000/svg" width="151" height="162" fill="none"><g filter="url(#a)"><ellipse cx="73.433" cy="136.122" fill="#E7E7FF" rx="54.626" ry="12.697"/></g><path fill="url(#b)" d="M74.142 146.103c37.41 0 67.737-30.326 67.737-67.736 0-37.41-30.327-67.737-67.737-67.737S6.406 40.957 6.406 78.367s30.326 67.736 67.736 67.736Z"/><path fill="url(#c)" d="M107.73 19.488H39.523a9.569 9.569 0 0 0-9.569 9.57v77.722h.117v27.294a6.168 6.168 0 0 0 8.953 5.502l31.46-15.949a6.172 6.172 0 0 1 5.525 0l32.428 16.066a6.173 6.173 0 0 0 5.993-.288 6.16 6.16 0 0 0 2.912-5.246l-.085-27.379V29.03a9.567 9.567 0 0 0-9.527-9.542Z"/><path fill="url(#d)" d="M150.5 44.66a8.523 8.523 0 0 1-8.537 8.532h-28.38a11.537 11.537 0 0 1-1.838-.151 10.724 10.724 0 0 1 1.379-21.282 15.102 15.102 0 0 1 15.995-8.616 15.105 15.105 0 0 1 12.707 12.985h.128a8.528 8.528 0 0 1 7.895 5.264 8.526 8.526 0 0 1 .651 3.268Z"/><path fill="url(#e)" d="M6.184 27.95a6.432 6.432 0 0 0 6.432 6.432h21.356a8.072 8.072 0 0 0 .34-16.136 11.376 11.376 0 0 0-21.594 3.285h-.097a6.433 6.433 0 0 0-6.437 6.419Z"/><g filter="url(#f)"><ellipse cx="76.452" cy="91.641" fill="#7C7CFF" fill-opacity=".39" rx="30.791" ry="6.598"/></g><path fill="url(#g)" d="m76.157 34.724 7.57 15.338a3.131 3.131 0 0 0 2.356 1.712l16.921 2.44a3.134 3.134 0 0 1 2.503 2.124 3.127 3.127 0 0 1-.77 3.192L92.51 71.465a3.121 3.121 0 0 0-.898 2.77l2.892 16.852a3.131 3.131 0 0 1-4.546 3.301l-15.135-7.974a3.137 3.137 0 0 0-2.913 0l-15.136 7.974a3.131 3.131 0 0 1-4.54-3.301l2.887-16.853a3.12 3.12 0 0 0-.898-2.77L41.995 59.53a3.13 3.13 0 0 1 1.733-5.316l16.922-2.456a3.13 3.13 0 0 0 2.355-1.712l7.57-15.338a3.132 3.132 0 0 1 5.582.016Z"/><path fill="url(#h)" d="M.5 110.19a8.493 8.493 0 0 0 7.379 8.422c.371.052.746.078 1.12.078h28.257a11.43 11.43 0 0 0 1.838-.152A10.678 10.678 0 0 0 48 107.309a10.684 10.684 0 0 0-10.284-9.983 15.047 15.047 0 0 0-28.583 4.351H9a8.5 8.5 0 0 0-8.5 8.513Z"/><path fill="#BDBDFF" d="M127.777 63.216a.978.978 0 0 1 1.212-1.183l4.89 1.374a.977.977 0 0 1 .418 1.641l-3.635 3.548a.978.978 0 0 1-1.63-.458l-1.255-4.922Zm-112.902 0a.977.977 0 0 1 1.212-1.183l4.89 1.374a.978.978 0 0 1 .418 1.641l-3.635 3.548a.977.977 0 0 1-1.63-.458l-1.255-4.922ZM52.83 4.724c.288-1.197 1.99-1.197 2.28 0l.972 4.028c.103.428.438.762.865.865l4.029.973c1.197.289 1.197 1.991 0 2.28l-4.029.973a1.173 1.173 0 0 0-.865.865l-.972 4.028c-.29 1.197-1.992 1.197-2.28 0l-.973-4.028a1.173 1.173 0 0 0-.865-.865l-4.029-.973c-1.197-.289-1.197-1.991 0-2.28l4.029-.973c.428-.103.761-.437.865-.865l.972-4.028Z"/><path stroke="#BDBDFF" stroke-width="1.466" d="M79.14 133.918a2.688 2.688 0 1 1-5.375 0 2.688 2.688 0 0 1 5.375 0Z"/><path fill="#BDBDFF" d="M127.12 111.761c.289-1.197 1.991-1.197 2.28 0l.973 4.028c.103.428.437.762.865.865l4.029.973c1.197.289 1.197 1.991 0 2.28l-4.029.973a1.171 1.171 0 0 0-.865.865l-.973 4.029c-.289 1.197-1.991 1.197-2.28 0l-.973-4.029a1.171 1.171 0 0 0-.865-.865l-4.028-.973c-1.197-.289-1.197-1.991 0-2.28l4.028-.973c.428-.103.762-.437.865-.865l.973-4.028Z"/><circle cx="131.681" cy="94.818" r="2.688" stroke="#9999FC" stroke-width="1.466"/><defs><linearGradient id="b" x1="73.62" x2="75.008" y1="-11.427" y2="226.454" gradientUnits="userSpaceOnUse"><stop stop-color="#E1E1FF" stop-opacity="0"/><stop offset="1" stop-color="#E0E0FF"/></linearGradient><linearGradient id="c" x1="138.603" x2="33.835" y1="146.558" y2="52.423" gradientUnits="userSpaceOnUse"><stop stop-color="#99F"/><stop offset="1" stop-color="#DADAFF"/></linearGradient><linearGradient id="d" x1="141.456" x2="117.752" y1="66.226" y2="22.971" gradientUnits="userSpaceOnUse"><stop stop-color="#BDBDFF"/><stop offset="1" stop-color="#F5F5FF"/></linearGradient><linearGradient id="e" x1="35.205" x2="17.379" y1="44.181" y2="11.665" gradientUnits="userSpaceOnUse"><stop stop-color="#BDBDFF"/><stop offset="1" stop-color="#F5F5FF"/></linearGradient><linearGradient id="g" x1="46.283" x2="161.942" y1="49.57" y2="94.693" gradientUnits="userSpaceOnUse"><stop stop-color="#BDACFF"/><stop offset=".704" stop-color="#4242FF"/></linearGradient><linearGradient id="h" x1="39.004" x2="15.401" y1="131.675" y2="88.563" gradientUnits="userSpaceOnUse"><stop stop-color="#BDBDFF"/><stop offset="1" stop-color="#F5F5FF"/></linearGradient><filter id="a" width="134.968" height="51.11" x="5.949" y="110.567" color-interpolation-filters="sRGB" filterUnits="userSpaceOnUse"><feFlood flood-opacity="0" result="BackgroundImageFix"/><feBlend in="SourceGraphic" in2="BackgroundImageFix" result="shape"/><feGaussianBlur result="effect1_foregroundBlur_1122_12482" stdDeviation="6.429"/></filter><filter id="f" width="86.021" height="37.634" x="33.442" y="72.824" color-interpolation-filters="sRGB" filterUnits="userSpaceOnUse"><feFlood flood-opacity="0" result="BackgroundImageFix"/><feBlend in="SourceGraphic" in2="BackgroundImageFix" result="shape"/><feGaussianBlur result="effect1_foregroundBlur_1122_12482" stdDeviation="6.109"/></filter></defs></svg>