<svg xmlns="http://www.w3.org/2000/svg" width="18" height="18" fill="none"><path fill="#64748B" d="M2.636 3.808 3.451 3l10.64 10.64-.808.814-1.96-1.96a7.365 7.365 0 0 1-2.323.37c-3.182 0-5.9-1.98-7-4.773A7.48 7.48 0 0 1 4.03 5.2L2.636 3.809ZM9 6.182a1.909 1.909 0 0 1 1.8 2.545L8.365 6.29A1.91 1.91 0 0 1 9 6.182Zm0-2.864c3.182 0 5.9 1.98 7 4.773a7.509 7.509 0 0 1-2.546 3.303l-.903-.91a6.274 6.274 0 0 0 2.062-2.393A6.249 6.249 0 0 0 9 4.59c-.694 0-1.375.114-2.01.318l-.98-.974A7.55 7.55 0 0 1 9 3.318ZM3.387 8.091a6.249 6.249 0 0 0 6.886 3.366L8.822 10A1.95 1.95 0 0 1 7.09 8.27L4.927 6.1a6.271 6.271 0 0 0-1.54 1.99Z"/></svg>