<svg width="18" height="18" viewBox="0 0 18 18" fill="none" xmlns="http://www.w3.org/2000/svg">
<path d="M2.63636 3.80818L3.45091 3L14.0909 13.64L13.2827 14.4545L11.3227 12.4945C10.5909 12.7364 9.81455 12.8636 9 12.8636C5.81818 12.8636 3.10091 10.8845 2 8.09091C2.43909 6.97091 3.13909 5.98455 4.03 5.20182L2.63636 3.80818ZM9 6.18182C9.50632 6.18182 9.99191 6.38295 10.3499 6.74098C10.708 7.099 10.9091 7.58459 10.9091 8.09091C10.9094 8.30763 10.8728 8.52283 10.8009 8.72727L8.36364 6.29C8.56808 6.21808 8.78328 6.1815 9 6.18182ZM9 3.31818C12.1818 3.31818 14.8991 5.29727 16 8.09091C15.4803 9.41005 14.5978 10.5551 13.4545 11.3936L12.5509 10.4836C13.431 9.87492 14.1407 9.05125 14.6127 8.09091C14.0983 7.04082 13.2996 6.15613 12.3074 5.53741C11.3152 4.91868 10.1693 4.59076 9 4.59091C8.30636 4.59091 7.62545 4.70545 6.98909 4.90909L6.00909 3.93545C6.92545 3.54091 7.93727 3.31818 9 3.31818ZM3.38727 8.09091C3.90167 9.14099 4.70038 10.0257 5.69259 10.6444C6.68479 11.2631 7.83069 11.5911 9 11.5909C9.43909 11.5909 9.87182 11.5464 10.2727 11.4573L8.82182 10C8.37901 9.95254 7.9658 9.75492 7.65089 9.44002C7.33599 9.12511 7.13837 8.7119 7.09091 8.26909L4.92727 6.09909C4.29727 6.64 3.76909 7.31455 3.38727 8.09091Z" fill="#64748B"/>
</svg>
