<svg xmlns="http://www.w3.org/2000/svg" width="16" height="16" fill="none"><path fill="#64748B" fill-rule="evenodd" d="M2.144 8c.385.53 1.174 1.532 2.214 2.403C5.435 11.306 6.698 12 8 12c1.303 0 2.565-.694 3.642-1.597 1.04-.871 1.829-1.872 2.214-2.403-.385-.531-1.175-1.532-2.214-2.403C10.565 4.693 9.302 4 8 4c-1.303 0-2.565.693-3.642 1.597C3.318 6.468 2.529 7.469 2.144 8Zm1.357-3.425C4.676 3.59 6.238 2.666 8 2.666c1.762 0 3.324.924 4.499 1.909 1.186.994 2.063 2.123 2.469 2.687a1.258 1.258 0 0 1 0 1.476c-.406.564-1.283 1.693-2.47 2.687-1.174.984-2.736 1.908-4.498 1.908s-3.324-.924-4.499-1.908c-1.186-.995-2.063-2.123-2.469-2.687a1.258 1.258 0 0 1 0-1.476c.406-.564 1.283-1.693 2.47-2.687Z" clip-rule="evenodd"/><path fill="#64748B" fill-rule="evenodd" d="M8 9.333a1.333 1.333 0 1 0 0-2.666 1.333 1.333 0 0 0 0 2.666Zm0 1.333a2.667 2.667 0 1 0 0-5.333 2.667 2.667 0 0 0 0 5.333Z" clip-rule="evenodd"/></svg>