<svg width="20" height="23" fill="none" xmlns="http://www.w3.org/2000/svg"><path d="M16.036 22.809a3.025 3.025 0 0 1-2.219-.923 3.032 3.032 0 0 1-.924-2.22V3.95c0-.864.308-1.603.924-2.218a3.034 3.034 0 0 1 2.219-.924 3.023 3.023 0 0 1 2.22.924c.617.617.925 1.356.923 2.218v15.715a3.03 3.03 0 0 1-.923 2.22 3.019 3.019 0 0 1-2.22.923Zm-12.572 0a3.025 3.025 0 0 1-2.218-.923 3.033 3.033 0 0 1-.924-2.22V3.95c0-.864.308-1.603.924-2.218A3.034 3.034 0 0 1 3.464.809c.864-.001 1.604.307 2.22.924.618.617.925 1.356.923 2.218v15.715a3.03 3.03 0 0 1-.922 2.22 3.019 3.019 0 0 1-2.22.923Z" fill="#5654C9"/></svg>