<svg xmlns="http://www.w3.org/2000/svg" width="20" height="20" fill="none"><path stroke="#1D1C49" d="M4.063 18.875h-1.25a.438.438 0 0 1-.438-.438v-5.625a.438.438 0 0 1 .438-.437h1.25a.438.438 0 0 1 .437.438v5.624a.438.438 0 0 1-.438.438Zm8.75 0h-1.25a.438.438 0 0 1-.438-.438V9.063a.438.438 0 0 1 .438-.437h1.25a.438.438 0 0 1 .437.438v9.374a.438.438 0 0 1-.438.438Zm4.374 0h-1.25a.438.438 0 0 1-.437-.438V4.688a.438.438 0 0 1 .438-.437h1.25a.438.438 0 0 1 .437.438v13.75a.438.438 0 0 1-.438.437Zm-8.75 0h-1.25a.438.438 0 0 1-.437-.438V1.563a.437.437 0 0 1 .438-.437h1.25a.437.437 0 0 1 .437.438v16.875a.438.438 0 0 1-.438.437Z"/></svg>