<svg width="40" height="40" viewBox="0 0 40 40" fill="none" xmlns="http://www.w3.org/2000/svg">
<path d="M26 26.0001L23.1047 23.1047M23.1047 23.1047C23.5999 22.6095 23.9928 22.0215 24.2608 21.3744C24.5289 20.7274 24.6668 20.0338 24.6668 19.3334C24.6668 18.633 24.5289 17.9395 24.2608 17.2924C23.9928 16.6453 23.5999 16.0573 23.1047 15.5621C22.6094 15.0668 22.0215 14.674 21.3744 14.4059C20.7273 14.1379 20.0338 13.9999 19.3333 13.9999C18.6329 13.9999 17.9394 14.1379 17.2923 14.4059C16.6452 14.674 16.0573 15.0668 15.562 15.5621C14.5618 16.5623 13.9999 17.9189 13.9999 19.3334C13.9999 20.7479 14.5618 22.1045 15.562 23.1047C16.5622 24.105 17.9188 24.6669 19.3333 24.6669C20.7479 24.6669 22.1045 24.105 23.1047 23.1047Z" stroke="#7170DE" stroke-width="2.5" stroke-linecap="round" stroke-linejoin="round"/>
</svg>
