<svg width="40" height="40" viewBox="0 0 40 40" fill="none" xmlns="http://www.w3.org/2000/svg">
<path d="M26.0001 26.0001L23.1048 23.1047M23.1048 23.1047C23.6001 22.6095 23.9929 22.0215 24.261 21.3744C24.529 20.7274 24.6669 20.0338 24.6669 19.3334C24.6669 18.633 24.529 17.9395 24.261 17.2924C23.9929 16.6453 23.6001 16.0573 23.1048 15.5621C22.6095 15.0668 22.0216 14.674 21.3745 14.4059C20.7274 14.1379 20.0339 13.9999 19.3335 13.9999C18.6331 13.9999 17.9395 14.1379 17.2924 14.4059C16.6454 14.674 16.0574 15.0668 15.5621 15.5621C14.5619 16.5623 14 17.9189 14 19.3334C14 20.7479 14.5619 22.1045 15.5621 23.1047C16.5624 24.105 17.9189 24.6669 19.3335 24.6669C20.748 24.6669 22.1046 24.105 23.1048 23.1047Z" stroke="#7170DE" stroke-width="1.5" stroke-linecap="round" stroke-linejoin="round"/>
</svg>
