<svg xmlns="http://www.w3.org/2000/svg" width="32" height="32" fill="none"><g clip-path="url(#a)"><path fill="#F8F8FB" d="M23.486 16.767a6.405 6.405 0 0 1 6.431 6.431 6.374 6.374 0 0 1-.986 3.43l4.402 4.431-1.986 1.987-4.46-4.388a6.428 6.428 0 0 1-3.4.972 6.405 6.405 0 0 1-6.432-6.432 6.405 6.405 0 0 1 6.431-6.431Zm0 2.858a3.573 3.573 0 1 0 0 7.146 3.573 3.573 0 0 0 0-7.146ZM12.767 5.333l2.858 2.859H27.06a2.858 2.858 0 0 1 2.858 2.858v5.445a9.29 9.29 0 0 0-15.721 6.703c0 1.844.529 3.573 1.43 5.003H4.191a2.859 2.859 0 0 1-2.859-2.859V8.192a2.849 2.849 0 0 1 2.859-2.859h8.575Z"/></g><defs><clipPath id="a"><path fill="#fff" d="M0 0h32v32H0z"/></clipPath></defs></svg>