<svg xmlns="http://www.w3.org/2000/svg" width="28" height="28" fill="none"><path fill="#5654C9" d="M12.833 11a.5.5 0 0 1 .5-.5h9.5a.5.5 0 0 1 .5.5v1.333a.5.5 0 0 1-.5.5h-9.5a.5.5 0 0 1-.5-.5V11Zm0 4.667a.5.5 0 0 1 .5-.5H20.5a.5.5 0 0 1 .5.5V17a.5.5 0 0 1-.5.5h-7.167a.5.5 0 0 1-.5-.5v-1.333Zm0-9.334a.5.5 0 0 1 .5-.5h11.834a.5.5 0 0 1 .5.5v1.334a.5.5 0 0 1-.5.5H13.333a.5.5 0 0 1-.5-.5V6.333Zm0 14a.5.5 0 0 1 .5-.5h4.834a.5.5 0 0 1 .5.5v1.334a.5.5 0 0 1-.5.5h-4.834a.5.5 0 0 1-.5-.5v-1.334Zm-7 2.5a.5.5 0 0 0 .5.5h1.334a.5.5 0 0 0 .5-.5v-13a.5.5 0 0 1 .5-.5h1.793a.5.5 0 0 0 .353-.853l-3.46-3.46a.5.5 0 0 0-.707 0l-3.46 3.46a.5.5 0 0 0 .354.853h1.793a.5.5 0 0 1 .5.5v13Z"/></svg>