<svg width="38" height="30" viewBox="0 0 38 30" fill="none" xmlns="http://www.w3.org/2000/svg">
<g clip-path="url(#clip0_1_1366)">
<path d="M3.72973 30C2.70406 30 1.8257 29.6325 1.09468 28.8975C0.363651 28.1625 -0.00124008 27.28 3.16615e-06 26.25V3.75C3.16615e-06 2.71875 0.365517 1.83563 1.09654 1.10063C1.82757 0.365628 2.7053 -0.00124682 3.72973 3.18336e-06H14.9189L18.6486 3.75H33.5676C34.5932 3.75 35.4716 4.1175 36.2026 4.8525C36.9336 5.5875 37.2985 6.47 37.2973 7.5V26.25C37.2973 27.2812 36.9318 28.1644 36.2007 28.8994C35.4697 29.6344 34.592 30.0012 33.5676 30H3.72973Z" fill="#908FE5"/>
</g>
<defs>
<clipPath id="clip0_1_1366">
<rect width="37.2973" height="30" fill="white"/>
</clipPath>
</defs>
</svg>
