<svg width="44" height="36" viewBox="0 0 44 36" fill="none" xmlns="http://www.w3.org/2000/svg">
<g clip-path="url(#clip0_1096_28420)">
<path d="M4.4 35.6956C3.19 35.6956 2.1538 35.2621 1.2914 34.395C0.429003 33.5279 -0.00146293 32.4868 3.73515e-06 31.2717V4.72824C3.73515e-06 3.51166 0.431204 2.46983 1.2936 1.60274C2.156 0.735656 3.19147 0.30285 4.4 0.304325H17.6L22 4.72824H39.6C40.81 4.72824 41.8462 5.16178 42.7086 6.02887C43.571 6.89595 44.0015 7.93705 44 9.15215V31.2717C44 32.4883 43.5688 33.5301 42.7064 34.3972C41.844 35.2643 40.8085 35.6971 39.6 35.6956H4.4Z" fill="#A5A4E5"/>
</g>
<defs>
<clipPath id="clip0_1096_28420">
<rect width="44" height="35.3913" fill="white" transform="translate(0 0.304321)"/>
</clipPath>
</defs>
</svg>
