<svg xmlns="http://www.w3.org/2000/svg" width="44" height="36" fill="none"><g clip-path="url(#a)"><path fill="#A5A4E5" d="M4.4 35.696c-1.21 0-2.246-.434-3.109-1.301C.43 33.528 0 32.487 0 31.272V4.728C0 3.512.431 2.47 1.294 1.603 2.156.736 3.19.303 4.4.304h13.2L22 4.728h17.6c1.21 0 2.246.434 3.109 1.3C43.57 6.897 44 7.939 44 9.153v22.12c0 1.216-.431 2.258-1.294 3.125-.862.867-1.898 1.3-3.106 1.299H4.4Z"/></g><defs><clipPath id="a"><path fill="#fff" d="M0 .304h44v35.391H0z"/></clipPath></defs></svg>