<svg width="451" height="250" fill="none" xmlns="http://www.w3.org/2000/svg"><g filter="url(#a)"><path d="m141.485 81.082 89.527 67.146c17.46 13.095 26.19 19.642 34.35 18.608 8.16-1.034 9.031-8.799 10.773-24.328l1.562-13.918c.809-7.213 1.214-10.819 5.295-12.605 4.081-1.786 10.217-1.042 22.489.445l21.082 2.556c26.851 3.255 40.277 4.882 44.175.581 3.897-4.302-4.975-10.956-22.719-24.264l-88.756-66.567c-8.005-6.004-12.008-9.006-17.336-9.608-5.328-.603-9.9 1.43-19.044 5.493l-78.982 35.103c-9.145 4.065-13.717 6.097-14.071 9.224-.353 3.128 3.649 6.13 11.655 12.134Z" fill="#9F9EE7"/><path d="m141.485 81.082 89.527 67.146c17.46 13.095 26.19 19.642 34.35 18.608 8.16-1.034 9.031-8.799 10.773-24.328l1.562-13.918c.809-7.213 1.214-10.819 5.295-12.605 4.081-1.786 10.217-1.042 22.489.445l21.082 2.556c26.851 3.255 40.277 4.882 44.175.581 3.897-4.302-4.975-10.956-22.719-24.264l-88.756-66.567c-8.005-6.004-12.008-9.006-17.336-9.608-5.328-.603-9.9 1.43-19.044 5.493l-78.982 35.103c-9.145 4.065-13.717 6.097-14.071 9.224-.353 3.128 3.649 6.13 11.655 12.134Z" fill="url(#b)"/><path d="m141.485 81.082 89.527 67.146c17.46 13.095 26.19 19.642 34.35 18.608 8.16-1.034 9.031-8.799 10.773-24.328l1.562-13.918c.809-7.213 1.214-10.819 5.295-12.605 4.081-1.786 10.217-1.042 22.489.445l21.082 2.556c26.851 3.255 40.277 4.882 44.175.581 3.897-4.302-4.975-10.956-22.719-24.264l-88.756-66.567c-8.005-6.004-12.008-9.006-17.336-9.608-5.328-.603-9.9 1.43-19.044 5.493l-78.982 35.103c-9.145 4.065-13.717 6.097-14.071 9.224-.353 3.128 3.649 6.13 11.655 12.134Z" fill="#000" fill-opacity=".2"/><path d="m120.291 39.474-70.49 48.921c-17.544 12.177-26.317 18.265-25.904 22.615.277 2.912 2.763 5.453 6.88 7.034 6.15 2.361 19.58.802 46.438-2.317 11.722-1.361 17.583-2.042 22.093-1.311 3.724.603 6.841 1.853 8.927 3.581 2.524 2.092 2.804 5.194 3.363 11.396 1.214 13.473 1.821 20.21 7.142 22.698 4.325 2.023 10.448 2.68 16.576 1.779 7.539-1.107 15.864-6.885 32.515-18.442l70.879-49.191c12.434-8.63 18.65-12.944 18.14-17.352-.511-4.407-7.549-7.187-21.626-12.745l-58.697-23.18c-14.077-5.558-21.115-8.337-29.351-7.383-8.235.954-14.452 5.268-26.885 13.897Z" fill="#9F9DF0"/><path d="m120.291 39.474-70.49 48.921c-17.544 12.177-26.317 18.265-25.904 22.615.277 2.912 2.763 5.453 6.88 7.034 6.15 2.361 19.58.802 46.438-2.317 11.722-1.361 17.583-2.042 22.093-1.311 3.724.603 6.841 1.853 8.927 3.581 2.524 2.092 2.804 5.194 3.363 11.396 1.214 13.473 1.821 20.21 7.142 22.698 4.325 2.023 10.448 2.68 16.576 1.779 7.539-1.107 15.864-6.885 32.515-18.442l70.879-49.191c12.434-8.63 18.65-12.944 18.14-17.352-.511-4.407-7.549-7.187-21.626-12.745l-58.697-23.18c-14.077-5.558-21.115-8.337-29.351-7.383-8.235.954-14.452 5.268-26.885 13.897Z" fill="url(#c)"/></g><defs><linearGradient id="b" x1="117.185" y1="116.515" x2="147.126" y2="-11.326" gradientUnits="userSpaceOnUse"><stop stop-color="#7170DE"/><stop offset="1" stop-color="#706FDA" stop-opacity=".24"/></linearGradient><linearGradient id="c" x1="79.794" y1="102.176" x2="230.91" y2="49.829" gradientUnits="userSpaceOnUse"><stop stop-color="#7170DE"/><stop offset="1" stop-color="#706FDA" stop-opacity=".24"/></linearGradient><filter id="a" x=".619" y=".295" width="449.426" height="249.585" filterUnits="userSpaceOnUse" color-interpolation-filters="sRGB"><feFlood flood-opacity="0" result="BackgroundImageFix"/><feColorMatrix in="SourceAlpha" values="0 0 0 0 0 0 0 0 0 0 0 0 0 0 0 0 0 0 127 0" result="hardAlpha"/><feOffset dx="27.568" dy="32.105"/><feGaussianBlur stdDeviation="25.416"/><feComposite in2="hardAlpha" operator="out"/><feColorMatrix values="0 0 0 0 0.111667 0 0 0 0 0.111667 0 0 0 0 0.446667 0 0 0 0.25 0"/><feBlend in2="BackgroundImageFix" result="effect1_dropShadow_1530_436"/><feBlend in="SourceGraphic" in2="effect1_dropShadow_1530_436" result="shape"/><feColorMatrix in="SourceAlpha" values="0 0 0 0 0 0 0 0 0 0 0 0 0 0 0 0 0 0 127 0" result="hardAlpha"/><feOffset dx="5.351" dy="-16.052"/><feGaussianBlur stdDeviation="5.351"/><feComposite in2="hardAlpha" operator="arithmetic" k2="-1" k3="1"/><feColorMatrix values="0 0 0 0 0 0 0 0 0 0 0 0 0 0 0 0 0 0 0.14 0"/><feBlend in2="shape" result="effect2_innerShadow_1530_436"/></filter></defs></svg>