<svg width="250" height="49" viewBox="0 0 250 49" fill="none" xmlns="http://www.w3.org/2000/svg">
<path d="M32.5194 1.74395C31.1858 3.07755 30.7755 3.89824 30.7755 5.33443C30.7755 8.00164 32.0578 10.2072 34.1608 11.0792C36.3151 12.0025 38.2642 11.5921 40.1107 9.84817C43.8551 6.36028 41.393 0 36.3151 0C34.6737 0 33.9043 0.359048 32.5194 1.74395Z" fill="#5250D1"/>
<path d="M213.89 47.1893H224.097L224.405 35.1868L235.176 47.1893H250L246.461 43.4449C244.46 41.4445 241.024 37.854 238.767 35.4946L234.664 31.2373L241.691 24.3128L248.718 17.4396H234.51L229.791 22.5688C227.175 25.3899 224.815 27.6981 224.61 27.6981C224.354 27.6981 224.149 21.4404 224.149 13.8491V9.93925e-05H213.89V47.1893Z" fill="black"/>
<path d="M0 47.1893H24.6204V37.4437H11.2844V3.07765H0V47.1893Z" fill="black"/>
<path d="M52.3184 17.4396H48.7279V26.6723H52.3184V33.2377C52.3184 39.0338 52.4723 40.0596 53.4982 42.06C55.396 45.8557 59.9097 48.2151 65.3467 48.2151H67.7062V43.8553C67.7062 39.9057 67.6036 39.4954 66.7316 39.4954C62.8334 39.4954 62.5769 38.3157 62.5769 22.0559V8.20693H52.3184V17.4396Z" fill="black"/>
<path d="M151.057 16.8753C137.464 20.4145 135.823 40.7264 148.595 47.1379C151.98 48.8306 156.955 48.6254 160.494 46.6763C162.033 45.8043 163.367 45.1375 163.469 45.1375C163.521 45.1375 163.623 45.5992 163.623 46.1634C163.623 47.1379 163.982 47.1892 168.753 47.1892H173.882V17.4395H168.753C163.675 17.4395 163.623 17.4395 163.623 18.6706V19.9016L160.802 18.3628C157.827 16.7727 153.826 16.1572 151.057 16.8753ZM161.315 27.4416C164.239 30.4678 164.136 34.4687 161.213 37.5462C159.776 39.085 157.212 39.8031 155.468 39.2389C153.416 38.6234 151.364 36.3665 150.749 34.2635C150.287 32.5196 150.39 31.7502 151.057 29.9036C152.134 27.0825 154.288 25.6463 157.417 25.6463C159.315 25.6463 159.93 25.9028 161.315 27.4416Z" fill="black"/>
<path d="M97.4558 17.4909C96.7378 17.7986 95.558 18.6193 94.7886 19.3374L93.3524 20.7223V17.4396H83.0939V47.1893H93.3524V37.7514C93.3524 28.3136 93.3524 28.2623 94.6861 26.7235C96.0197 25.1335 97.4046 24.7744 99.9179 25.4412C102.175 26.0567 102.585 27.9033 102.585 37.9566V47.1893H113.357V37.4437C113.357 27.7494 113.357 27.6468 114.639 26.4158C116.229 24.7744 118.486 24.7744 120.384 26.3645L121.82 27.5955L121.974 37.3924L122.179 47.1893H132.335V36.0075C132.335 25.4412 132.284 24.7231 131.206 22.5688C130.54 21.3378 129.155 19.6452 128.078 18.7732C126.487 17.4909 125.564 17.1831 122.846 17.0292C118.691 16.7728 117.101 17.3883 114.331 20.3632C113.203 21.5943 112.177 22.5688 112.126 22.4662C112.074 22.3637 111.51 21.5943 110.895 20.671C109.202 18.2603 106.022 16.9266 102.021 16.9779C100.226 16.9779 98.1739 17.2344 97.4558 17.4909Z" fill="black"/>
<path d="M31.2885 47.1893H41.547V17.4396H31.2885V47.1893Z" fill="black"/>
<path d="M67.3985 18.4141C65.911 19.3374 64.6287 21.6455 64.6287 23.4408C64.6287 25.1847 66.3213 27.6467 68.0653 28.4674C71.8609 30.2627 75.913 27.5442 75.913 23.2356C75.913 21.2865 75.6566 20.671 74.1691 19.1835C72.1174 17.1318 69.9118 16.8753 67.3985 18.4141Z" fill="#5250D1"/>
<path d="M183.114 47.1893H193.373V17.4396H183.114V47.1893Z" fill="black"/>
<path d="M198.605 18.1064C192.45 21.543 197.271 31.7502 203.529 28.5188C205.735 27.3903 206.709 25.749 206.709 23.1843C206.709 18.9271 202.247 16.106 198.605 18.1064Z" fill="#5250D1"/>
</svg>
