<svg xmlns="http://www.w3.org/2000/svg" viewBox="0 0 630 122" fill="none"><path fill="#5250D1" d="M81.95 4.395c-3.362 3.36-4.396 5.429-4.396 9.048 0 6.721 3.232 12.28 8.531 14.477 5.43 2.326 10.34 1.292 14.994-3.103C110.515 16.027 104.311 0 91.514 0c-4.136 0-6.075.905-9.565 4.395Z"/><path fill="#000" d="M539.003 59.459v59.458h25.722l.388-15.123.388-15.123 13.572 15.123 13.572 15.123H630l-8.919-9.436c-5.041-5.041-13.701-14.089-19.388-20.035l-10.341-10.728 17.708-17.45 17.709-17.32h-35.805l-11.891 12.925c-6.592 7.11-12.538 12.926-13.055 12.926-.647 0-1.164-15.77-1.164-34.9V0h-25.851V59.46ZM0 63.336v55.581h62.044v-24.56H28.437V7.757H0v55.58ZM131.842 32.314v11.634h-9.048v23.266h9.048v16.545c0 14.606.388 17.191 2.973 22.232 4.783 9.565 16.158 15.511 29.859 15.511h5.946v-10.987c0-9.953-.259-10.987-2.456-10.987-9.824 0-10.47-2.973-10.47-43.947v-34.9h-25.852v11.633ZM380.663 42.526c-34.253 8.918-38.39 60.104-6.205 76.261 8.531 4.266 21.069 3.749 29.988-1.163 3.878-2.197 7.239-3.878 7.497-3.878.129 0 .388 1.164.388 2.586 0 2.455.905 2.585 12.926 2.585h12.925v-74.97h-12.925c-12.797 0-12.926 0-12.926 3.103v3.102l-7.109-3.878c-7.497-4.007-17.579-5.558-24.559-3.748Zm25.851 26.627c7.368 7.626 7.109 17.708-.258 25.463-3.62 3.878-10.082 5.688-14.477 4.266-5.17-1.551-10.341-7.239-11.892-12.538-1.163-4.395-.905-6.334.776-10.987 2.714-7.11 8.143-10.728 16.028-10.728 4.782 0 6.333.646 9.823 4.524ZM245.589 44.077c-1.81.775-4.783 2.843-6.722 4.653l-3.619 3.49v-8.272h-25.851v74.969h25.851V95.133c0-23.783 0-23.912 3.361-27.79 3.361-4.007 6.851-4.912 13.184-3.231 5.687 1.55 6.721 6.204 6.721 31.538v23.267h27.145v-24.56c0-24.429 0-24.687 3.231-27.79 4.007-4.136 9.694-4.136 14.477-.129l3.619 3.102.388 24.689.517 24.688h25.593V90.739c0-26.627-.13-28.437-2.844-33.866-1.68-3.102-5.17-7.367-7.885-9.565-4.007-3.231-6.333-4.007-13.184-4.395-10.47-.646-14.477.905-21.457 8.402-2.843 3.102-5.428 5.558-5.558 5.3-.129-.259-1.551-2.198-3.102-4.524-4.265-6.075-12.279-9.436-22.361-9.307-4.524 0-9.695.647-11.504 1.293ZM78.847 81.432v37.485h25.851V43.948H78.847v37.484Z"/><path fill="#5250D1" d="M169.844 46.403c-3.748 2.327-6.98 8.144-6.98 12.668 0 4.394 4.266 10.599 8.66 12.667 9.566 4.524 19.777-2.327 19.777-13.184 0-4.912-.646-6.463-4.395-10.212-5.17-5.17-10.728-5.816-17.062-1.939Z"/><path fill="#000" d="M461.448 81.432v37.485H487.3V43.948h-25.852v37.484Z"/><path fill="#5250D1" d="M500.484 45.628c-15.511 8.66-3.36 34.382 12.409 26.24 5.558-2.844 8.014-6.98 8.014-13.444 0-10.728-11.245-17.837-20.423-12.796Z"/></svg>