<svg width="140" height="28" viewBox="0 0 140 28" fill="none" xmlns="http://www.w3.org/2000/svg">
<path d="M18.2109 0.976611C17.4641 1.72343 17.2343 2.18301 17.2343 2.98728C17.2343 4.48092 17.9524 5.71604 19.13 6.20435C20.3364 6.72138 21.4279 6.49159 22.462 5.51498C24.5588 3.56176 23.1801 0 20.3364 0C19.4173 0 18.9864 0.201067 18.2109 0.976611Z" fill="#5250D1"/>
<path d="M119.778 26.426H125.494L125.667 19.7046L131.699 26.426H140L138.018 24.3291C136.898 23.2089 134.973 21.1982 133.709 19.877L131.412 17.4929L135.347 13.6152L139.282 9.76616H131.325L128.683 12.6385C127.218 14.2184 125.897 15.5109 125.782 15.5109C125.638 15.5109 125.523 12.0066 125.523 7.75549V5.56598e-05H119.778V26.426Z" fill="black"/>
<path d="M0 26.426H13.7874V20.9685H6.31924V1.72348H0V26.426Z" fill="black"/>
<path d="M29.2983 9.76617H27.2877V14.9365H29.2983V18.6131C29.2983 21.8589 29.3845 22.4334 29.959 23.5536C31.0218 25.6792 33.5494 27.0005 36.5942 27.0005H37.9155V24.5589C37.9155 22.3472 37.858 22.1174 37.3697 22.1174C35.1867 22.1174 35.0431 21.4568 35.0431 12.3513V4.59588H29.2983V9.76617Z" fill="black"/>
<path d="M84.5917 9.45018C76.9799 11.4321 76.0607 22.8068 83.213 26.3972C85.1087 27.3451 87.8949 27.2302 89.8769 26.1387C90.7386 25.6504 91.4854 25.277 91.5429 25.277C91.5716 25.277 91.629 25.5355 91.629 25.8515C91.629 26.3972 91.8301 26.426 94.5014 26.426H97.3738V9.76614H94.5014C91.6578 9.76614 91.629 9.76614 91.629 10.4555V11.1449L90.0492 10.2832C88.3832 9.39273 86.1428 9.04804 84.5917 9.45018ZM90.3365 15.3673C91.9737 17.062 91.9163 19.3025 90.279 21.0259C89.4747 21.8876 88.0386 22.2897 87.0619 21.9738C85.913 21.6291 84.764 20.3652 84.4194 19.1876C84.1608 18.2109 84.2183 17.7801 84.5917 16.746C85.1949 15.1662 86.4013 14.362 88.1535 14.362C89.2162 14.362 89.5609 14.5056 90.3365 15.3673Z" fill="black"/>
<path d="M54.5753 9.79488C54.1731 9.96723 53.5125 10.4268 53.0816 10.8289L52.2774 11.6045V9.76616H46.5326V26.426H52.2774V21.1408C52.2774 15.8556 52.2774 15.8269 53.0242 14.9652C53.771 14.0747 54.5466 13.8737 55.954 14.2471C57.2179 14.5918 57.4477 15.6258 57.4477 21.2557V26.426H63.4797V20.9685C63.4797 15.5397 63.4797 15.4822 64.1978 14.7928C65.0882 13.8737 66.3521 13.8737 67.4148 14.7641L68.2191 15.4535L68.3053 20.9397L68.4202 26.426H74.1075V20.1642C74.1075 14.2471 74.0788 13.8449 73.4756 12.6385C73.1022 11.9492 72.3266 11.0013 71.7234 10.513C70.833 9.79488 70.3159 9.62254 68.7936 9.53637C66.467 9.39275 65.5765 9.73744 64.0254 11.4034C63.3935 12.0928 62.819 12.6385 62.7903 12.5811C62.7616 12.5236 62.4456 12.0928 62.1009 11.5758C61.153 10.2257 59.3722 9.47892 57.1317 9.50764C56.1264 9.50764 54.9774 9.65126 54.5753 9.79488Z" fill="black"/>
<path d="M17.5215 26.426H23.2663V9.76616H17.5215V26.426Z" fill="black"/>
<path d="M37.7431 10.3119C36.9102 10.8289 36.1921 12.1215 36.1921 13.1268C36.1921 14.1034 37.1399 15.4822 38.1166 15.9418C40.2421 16.9471 42.5113 15.4247 42.5113 13.0119C42.5113 11.9204 42.3677 11.5757 41.5347 10.7427C40.3857 9.59379 39.1506 9.45017 37.7431 10.3119Z" fill="#5250D1"/>
<path d="M102.544 26.426H108.289V9.76616H102.544V26.426Z" fill="black"/>
<path d="M111.219 10.1396C107.772 12.0641 110.472 17.7801 113.976 15.9705C115.211 15.3386 115.757 14.4194 115.757 12.9832C115.757 10.5992 113.258 9.01934 111.219 10.1396Z" fill="#5250D1"/>
</svg>
