<svg width="60" height="12" viewBox="0 0 60 12" fill="none" xmlns="http://www.w3.org/2000/svg">
<path d="M7.80466 0.418547C7.4846 0.738613 7.38611 0.935577 7.38611 1.28026C7.38611 1.92039 7.69387 2.44973 8.19859 2.65901C8.71562 2.88059 9.18341 2.78211 9.62657 2.36356C10.5252 1.52647 9.93433 0 8.71562 0C8.32169 0 8.13704 0.0861715 7.80466 0.418547Z" fill="#5250D1"/>
<path d="M51.3336 11.3254H53.7833L53.8572 8.44483L56.4423 11.3254H60L59.1506 10.4268C58.6705 9.94668 57.8457 9.08496 57.3041 8.51869L56.3192 7.49695L58.0057 5.83507L59.6922 4.1855H56.2823L55.1498 5.41652C54.522 6.09358 53.9557 6.64754 53.9064 6.64754C53.8449 6.64754 53.7957 5.14569 53.7957 3.32378V2.38542e-05H51.3336V11.3254Z" fill="black"/>
<path d="M0 11.3254H5.9089V8.98648H2.70825V0.738636H0V11.3254Z" fill="black"/>
<path d="M12.5564 4.1855H11.6947V6.40134H12.5564V7.97705C12.5564 9.3681 12.5934 9.61431 12.8396 10.0944C13.295 11.0054 14.3783 11.5716 15.6832 11.5716H16.2495V10.5253C16.2495 9.57738 16.2249 9.4789 16.0156 9.4789C15.08 9.4789 15.0185 9.19576 15.0185 5.29342V1.96966H12.5564V4.1855Z" fill="black"/>
<path d="M36.2536 4.05008C32.9914 4.89948 32.5975 9.77433 35.6627 11.3131C36.4752 11.7193 37.6693 11.6701 38.5187 11.2023C38.888 10.993 39.208 10.833 39.2327 10.833C39.245 10.833 39.2696 10.9438 39.2696 11.0792C39.2696 11.3131 39.3558 11.3254 40.5006 11.3254H41.7316V4.18549H40.5006C39.2819 4.18549 39.2696 4.18549 39.2696 4.48093V4.77638L38.5925 4.40707C37.8785 4.02546 36.9183 3.87773 36.2536 4.05008ZM38.7156 6.58598C39.4173 7.31228 39.3927 8.27248 38.691 9.01109C38.3463 9.3804 37.7308 9.55274 37.3123 9.41733C36.8199 9.26961 36.3274 8.72796 36.1797 8.22324C36.0689 7.80469 36.0936 7.62004 36.2536 7.17687C36.5121 6.49981 37.0291 6.15512 37.7801 6.15512C38.2355 6.15512 38.3833 6.21667 38.7156 6.58598Z" fill="black"/>
<path d="M23.3894 4.19781C23.2171 4.27167 22.9339 4.46863 22.7493 4.64097L22.4046 4.97335V4.1855H19.9425V11.3254H22.4046V9.06034C22.4046 6.79526 22.4046 6.78295 22.7247 6.41365C23.0447 6.03203 23.3771 5.94586 23.9803 6.10589C24.5219 6.25361 24.6204 6.69678 24.6204 9.10958V11.3254H27.2056V8.98648C27.2056 6.65985 27.2056 6.63523 27.5133 6.33978C27.8949 5.94586 28.4366 5.94586 28.8921 6.32747L29.2368 6.62292L29.2737 8.97417L29.3229 11.3254H31.7604V8.64179C31.7604 6.10589 31.748 5.93355 31.4895 5.41652C31.3295 5.12107 30.9971 4.71484 30.7386 4.50556C30.357 4.19781 30.1354 4.12395 29.483 4.08701C28.4858 4.02546 28.1042 4.17319 27.4395 4.88718C27.1686 5.18262 26.9224 5.41652 26.9101 5.3919C26.8978 5.36728 26.7624 5.18262 26.6147 4.96104C26.2084 4.38246 25.4452 4.06239 24.485 4.0747C24.0542 4.0747 23.5617 4.13626 23.3894 4.19781Z" fill="black"/>
<path d="M7.50923 11.3254H9.97127V4.1855H7.50923V11.3254Z" fill="black"/>
<path d="M16.1756 4.41938C15.8186 4.64096 15.5109 5.19492 15.5109 5.62578C15.5109 6.04433 15.9171 6.63522 16.3357 6.83218C17.2466 7.26304 18.2191 6.6106 18.2191 5.57654C18.2191 5.10875 18.1576 4.96103 17.8006 4.60403C17.3082 4.11162 16.7788 4.05007 16.1756 4.41938Z" fill="#5250D1"/>
<path d="M43.9475 11.3254H46.4095V4.1855H43.9475V11.3254Z" fill="black"/>
<path d="M47.6652 4.34553C46.1879 5.17032 47.3451 7.62005 48.847 6.8445C49.3763 6.57368 49.6102 6.17975 49.6102 5.56424C49.6102 4.54249 48.5392 3.86543 47.6652 4.34553Z" fill="#5250D1"/>
</svg>
